<?xml version="1.0" encoding="utf-8"?>
<!-- Generator: Adobe Illustrator 24.3.0, SVG Export Plug-In . SVG Version: 6.00 Build 0)  -->
<svg version="1.1" id="Layer_1" xmlns="http://www.w3.org/2000/svg" xmlns:xlink="http://www.w3.org/1999/xlink" x="0px" y="0px"
	 viewBox="0 0 595.28 841.89" style="enable-background:new 0 0 595.28 841.89;" xml:space="preserve">
<g>
	<path d="M347.22,290v26.94h-26.94c-13.7,0-24.8-11.1-24.8-24.8v-26.94h26.94C336.12,265.21,347.22,276.31,347.22,290z"/>
	<path d="M501.15,353.5v135.93h-26.94c-13.7,0-24.8-11.1-24.8-24.8v-70.18c0-7.73-6.27-14-14-14h-2.58c-7.73,0-14,6.27-14,14v94.97
		h-26.94c-13.7,0-24.8-11.1-24.8-24.8V328.71h109.27C490.05,328.71,501.15,339.81,501.15,353.5z"/>
	<path d="M275.62,353.5v135.93h-26.94c-13.7,0-24.8-11.1-24.8-24.8v-70.18c0-7.73-6.27-14-14-14h0c-6.56,0-11.87,5.32-11.87,11.87
		v97.11h-26.95c-13.7,0-24.8-11.1-24.8-24.8v-70.18c0-7.73-6.27-14-14-14h0c-6.56,0-11.87,5.32-11.87,11.87v97.11H93.43
		c-13.7,0-24.8-11.1-24.8-24.8V328.71h182.18C264.51,328.71,275.62,339.81,275.62,353.5z"/>
	<path d="M347.22,353.14v136.29h-26.94c-13.7,0-24.8-11.1-24.8-24.8V328.71h27.31C336.28,328.71,347.22,339.64,347.22,353.14z"/>
</g>
</svg>
