<?xml version="1.0" encoding="utf-8"?>
<!-- Generator: Adobe Illustrator 24.3.0, SVG Export Plug-In . SVG Version: 6.00 Build 0)  -->
<svg version="1.1" id="Layer_1" xmlns="http://www.w3.org/2000/svg" xmlns:xlink="http://www.w3.org/1999/xlink" x="0px" y="0px"
	 viewBox="0 0 434 225" style="enable-background:new 0 0 434 225;" xml:space="preserve">
<style type="text/css">
	.st0{fill:#FFFFFF;}
</style>
<g>
	<path class="st0" d="M278.63,25.19v26.94h-26.94c-13.7,0-24.8-11.1-24.8-24.8V0.39h26.94C267.53,0.39,278.63,11.49,278.63,25.19z"
		/>
	<path class="st0" d="M432.56,88.69v135.93h-26.94c-13.7,0-24.8-11.1-24.8-24.8v-70.18c0-7.73-6.27-14-14-14h-2.58
		c-7.73,0-14,6.27-14,14v94.97h-26.94c-13.7,0-24.8-11.1-24.8-24.8V63.89h109.27C421.46,63.89,432.56,74.99,432.56,88.69z"/>
	<path class="st0" d="M207.02,88.69v135.93h-26.94c-13.7,0-24.8-11.1-24.8-24.8v-70.18c0-7.73-6.27-14-14-14h0
		c-6.56,0-11.87,5.32-11.87,11.87v97.11h-26.95c-13.7,0-24.8-11.1-24.8-24.8v-70.18c0-7.73-6.27-14-14-14h0
		c-6.56,0-11.87,5.32-11.87,11.87v97.11H24.84c-13.7,0-24.8-11.1-24.8-24.8V63.89h182.18C195.92,63.89,207.02,74.99,207.02,88.69z"
		/>
	<path class="st0" d="M278.63,88.32v136.29h-26.94c-13.7,0-24.8-11.1-24.8-24.8V63.89h27.31C267.69,63.89,278.63,74.83,278.63,88.32
		z"/>
</g>
</svg>
